<svg xmlns="http://www.w3.org/2000/svg" 
    height="auto" 
    width="10em" 
    viewBox="0 0 375.1 48.33">
    <defs>
        <style>
        .cls-1{fill:#ffffff;}
        </style>
    </defs>
    <g id="Layer_2" data-name="Layer 2">
        <g id="Layer_1-2" data-name="Layer 1">
            <path class="cls-1"
                d="M.12,31.59H10v1.35q0,3.8.9,5.36a3.2,3.2,0,0,0,3,1.55,3.33,3.33,0,0,0,2.7-1.18,4.86,4.86,0,0,0,1-3.22c0-2.23-1.61-4.38-4.82-6.43l-1.2-.81-.51-.33Q4.59,23.5,3,21.29a13.39,13.39,0,0,1-1.73-3.77,16.64,16.64,0,0,1-.6-4.58q0-6.06,3.5-9.5T13.8,0Q20.48,0,24,3.38t3.52,9.8c0,.17,0,.42,0,.74s0,.57,0,.75H17.79V14.1a9,9,0,0,0-.95-4.58A3,3,0,0,0,14.1,8a3.05,3.05,0,0,0-2.45,1.1A4.31,4.31,0,0,0,10.72,12q0,2.93,5.27,6.23l1.47.95c.28.16.66.41,1.16.75q5.67,3.6,7.25,6.05a12.89,12.89,0,0,1,1.51,3.61,17.43,17.43,0,0,1,.53,4.39q0,6.91-3.6,10.66T14,48.33q-7,0-10.52-3.58C1.17,42.36,0,38.82,0,34.1c0-.29,0-.61,0-.94S.06,32.31.12,31.59Z" />
            <path class="cls-1"
                d="M30.6,31.71h9.91q0,5.81.53,7.1A1.92,1.92,0,0,0,43,40.09a1.75,1.75,0,0,0,1.67-.82,8.21,8.21,0,0,0,.48-3.52V1.11H55.9V31.47a58.92,58.92,0,0,1-.36,7.65,12.48,12.48,0,0,1-1.22,4.12A8.91,8.91,0,0,1,50.24,47a15.29,15.29,0,0,1-6.64,1.29q-7,0-10.06-3.3t-3-11c0-.64,0-1.12,0-1.44A8.23,8.23,0,0,1,30.6,31.71Z" />
            <path class="cls-1"
                d="M63.51,47.22V1.11H74.29V18.53h8.65V1.11H93.48V47.22H82.94V28.09H74.29V47.22Z" />
            <path class="cls-1"
                d="M100.91,1.11h9.37V9.88q0,4.68-2.34,7.23c-1.55,1.71-3.9,2.73-7,3.07V16.74a6.37,6.37,0,0,0,3.73-1.9,6.25,6.25,0,0,0,1.24-4h-5Z" />
            <path class="cls-1"
                d="M115.13,36.23l8.65,0a7.54,7.54,0,0,0,1,3.94,3.11,3.11,0,0,0,2.7,1.24,3.34,3.34,0,0,0,2.36-.85,3.14,3.14,0,0,0,.29-4.13,9.25,9.25,0,0,0-2.86-1.82l-1.5-.71a25.6,25.6,0,0,1-7.31-4.56A9.81,9.81,0,0,1,116.27,26a10.53,10.53,0,0,1-.78-4,9.51,9.51,0,0,1,3.22-7.55q3.21-2.81,8.7-2.81,5.68,0,8.76,2.71t3.06,7.77v.63l-8.47,0A7.34,7.34,0,0,0,130,19a2.67,2.67,0,0,0-2.38-1.1,3.33,3.33,0,0,0-2.34.79,2.68,2.68,0,0,0-.87,2.08q0,2.28,4.34,4.19l.93.42q5.94,2.67,7.94,5.18a10.29,10.29,0,0,1,2,6.59c0,3.49-1.07,6.2-3.23,8.11s-5.23,2.88-9.22,2.88c-3.8,0-6.74-1-8.85-2.91s-3.16-4.65-3.16-8.14Z" />
            <path class="cls-1"
                d="M161.06,47.22V1.11h10.6a53.1,53.1,0,0,1,8.67.51,13.53,13.53,0,0,1,4.72,1.7A9.79,9.79,0,0,1,188.92,8a18.29,18.29,0,0,1,1.34,7.32q0,7-3.7,10.65t-10.85,3.63H171.9V47.22ZM171.9,21l.56.06c.21,0,.5,0,.88,0,2.16,0,3.71-.5,4.67-1.51s1.44-2.63,1.44-4.87a4.85,4.85,0,0,0-1.53-4c-1-.82-2.71-1.23-5.09-1.23h-.93Z" />
            <path class="cls-1"
                d="M193.25,29.91q0-10.11,2.91-14.19t10-4.07q7.06,0,10,4T219,29.91q0,10.12-2.9,14.18t-10,4.06q-7.09,0-10-4T193.25,29.91Zm9.82,0q0,7.31.65,9.15a2.51,2.51,0,0,0,4.82.08q.65-1.77.64-9.23t-.64-9.23a2.5,2.5,0,0,0-4.82.07Q203.08,22.61,203.07,29.91Z" />
            <path class="cls-1"
                d="M224.45,47.22V12.58h8.89v4.85a13.23,13.23,0,0,1,3.49-4,8.9,8.9,0,0,1,4.3-1.58v11c-.54-.12-1-.21-1.54-.27a11.15,11.15,0,0,0-1.34-.09A3.39,3.39,0,0,0,235,24.16q-.91,1.65-.92,6.44V47.22Z" />
            <path class="cls-1"
                d="M262.6,47.1c-1.18.22-2.21.38-3.08.49a18.7,18.7,0,0,1-2.25.17,11.67,11.67,0,0,1-4.9-.93,6.33,6.33,0,0,1-3-2.66,9.58,9.58,0,0,1-.88-3,43.69,43.69,0,0,1-.25-5.53V19.73h-3.75V12.58h3.75V3H258v9.59h4.61v7.15H258V33.87q0,4.52.66,5.57a2.78,2.78,0,0,0,2.54,1,10.31,10.31,0,0,0,1.08-.09l.33,0Z" />
            <path class="cls-1"
                d="M268.92,47.22V19.94H265V12.58h3.92q0-.33,0-.9t0-.81q0-5.44,2.32-7.7c1.54-1.49,4.19-2.24,7.92-2.24.56,0,1.14,0,1.75,0s1.24.08,1.9.14v7l-.45,0-.69,0a3.1,3.1,0,0,0-2.38.78,3.87,3.87,0,0,0-.7,2.61c0,.3,0,.53,0,.69a2.67,2.67,0,0,0,.08.48h4.16v7.36h-4.16V47.22Z" />
            <path class="cls-1"
                d="M286.46,29.91q0-10.11,2.91-14.19t10-4.07q7.07,0,10,4t2.9,14.22q0,10.12-2.9,14.18t-10,4.06q-7.09,0-10-4T286.46,29.91Zm9.83,0q0,7.31.64,9.15a2.51,2.51,0,0,0,4.82.08q.64-1.77.64-9.23t-.64-9.23a2.5,2.5,0,0,0-4.82.07Q296.28,22.61,296.29,29.91Z" />
            <path class="cls-1" d="M327.49,47.22h-9.62V1.11h9.62Z" />
            <path class="cls-1" d="M334.07,9.13V.75h9.61V9.13Zm0,38.09V12.58h9.61V47.22Z" />
            <path class="cls-1"
                d="M349.34,29.91q0-10.11,2.91-14.19t10-4.07q7.06,0,10,4t2.91,14.22q0,10.12-2.91,14.18t-10,4.06q-7.1,0-10-4T349.34,29.91Zm9.83,0q0,7.31.64,9.15a2.51,2.51,0,0,0,4.82.08q.64-1.77.64-9.23t-.64-9.23a2.5,2.5,0,0,0-4.82.07Q359.17,22.61,359.17,29.91Z" />
        </g>
    </g>
</svg>