<svg xmlns="http://www.w3.org/2000/svg" 
    height="auto"
    width="100px" 
    viewBox="0 0 367.19 63.7">
    <defs>
        <style>.cls-1{fill:#231f20;}</style>
    </defs>
    <g id="Layer_2" data-name="Layer 2">
        <g id="Layer_1-2" data-name="Layer 1">
            <path class="cls-1"
                d="M17.82,6.23c-6.43,0-10.62,3.35-10.65,8,0,5.09,5.69,7,9.38,7.91l4.82,1.34c5.19,1.34,13.73,4.32,13.73,13.39,0,7.91-6.36,14-17.62,14.07C7,50.88.57,45.48,0,37.45H6.16c.51,5.42,5.56,8,11.32,8,6.7,0,11.73-3.42,11.73-8.71,0-4.72-4.49-6.53-9.58-8l-6-1.61C6.06,24.92,1.31,21,1.34,14.47,1.31,6.26,8.61.87,18,.87S34.2,6.36,34.43,13.73H28.54C28,9,23.61,6.23,17.82,6.23Z" />
            <path class="cls-1"
                d="M66,13.67h5.69V50H66V43.88h-.41A11.37,11.37,0,0,1,54.8,50.51C47.9,50.51,43,46,43,36.78V13.67h5.76v22.7C48.77,41.6,52,45,56.67,45,60.79,45,66,41.9,66,35.1Z" />
            <path class="cls-1"
                d="M86.69,50H80.93V13.67h5.56v5.69H87c1.7-3.72,5.12-6.16,10.65-6.16,7.37,0,12.29,4.48,12.26,13.73V50H104.1V27.33c0-5.63-3.08-9-8.23-9-5.3,0-9.18,3.55-9.18,9.85Z" />
            <path class="cls-1"
                d="M142.09,13.67v39c0,6.8-3.51,11-10.58,11.05a8.11,8.11,0,0,0-1.21,0V58.35a7.23,7.23,0,0,0,1.14,0c3.35,0,4.86-2.05,4.89-5.7v-39ZM139.14,0a4,4,0,0,1,4.09,3.82,4,4,0,0,1-4.09,3.82,3.9,3.9,0,0,1-4-3.82A3.86,3.86,0,0,1,139.14,0Z" />
            <path class="cls-1"
                d="M174.25,13.67h5.69V50h-5.69V43.88h-.41a11.37,11.37,0,0,1-10.78,6.63c-6.9,0-11.82-4.49-11.79-13.73V13.67H157v22.7c0,5.23,3.25,8.61,7.91,8.58,4.12,0,9.27-3.05,9.31-9.85Z" />
            <path class="cls-1"
                d="M195,50h-5.76V1.54H195V19.36h.47c1.71-3.75,5-6.16,10.72-6.16,7.43,0,12.39,4.38,12.39,13.73V50h-5.76V27.33c0-5.73-3.15-9-8.38-9C199,18.35,195,21.9,195,28.2Z" />
            <path class="cls-1"
                d="M226.91,63.57V58.41c.6.07,1.91.1,2.81.14,2.34,0,4.32-.17,6.23-5.5L237,50.31,223.56,13.67h6.29l9.92,28.87h.4l9.91-28.87h6.3L241,55.26c-2.14,5.73-5.69,8.41-10.85,8.44C228.88,63.67,227.64,63.64,226.91,63.57Z" />
            <path class="cls-1"
                d="M259.67,32.15c0-11.18,6.59-18.95,16.47-18.95,7.64,0,15.71,4.69,15.68,18.15v2.41H265.43c.3,7.7,4.79,11.93,11.25,11.93,4.35,0,7.1-1.91,8.44-4.16h6.16c-1.7,5.53-7.1,9.28-14.6,9.25C266.16,50.81,259.67,43.31,259.67,32.15ZM286,28.87c0-6.06-3.85-10.58-9.85-10.58-6.29,0-10.28,4.95-10.68,10.58Z" />
            <path class="cls-1"
                d="M297.58,32c0-11.35,6.7-18.82,16.62-18.82S330.71,20.67,330.67,32s-6.59,18.79-16.47,18.76S297.58,43.31,297.58,32ZM314.2,45.69c7.33,0,10.71-6.4,10.71-13.67s-3.38-13.73-10.71-13.73S303.38,24.79,303.34,32,306.79,45.69,314.2,45.69Z" />
            <path class="cls-1"
                d="M344,50h-5.76V13.67h5.56v5.69h.47c1.71-3.72,5.12-6.16,10.65-6.16,7.37,0,12.29,4.48,12.26,13.73V50h-5.76V27.33c0-5.63-3.09-9-8.24-9-5.3,0-9.18,3.55-9.18,9.85Z" />
        </g>
    </g>
</svg>